HIERARCHY
ROOT mixamorig:Hips
{
	OFFSET 0.000000 104.274902 0.000000
	CHANNELS 6 Xposition Yposition Zposition Xrotation Yrotation Zrotation
	JOINT mixamorig:Spine
	{
		OFFSET 0.000000 10.181549 0.131524
		CHANNELS 6 Xposition Yposition Zposition Xrotation Yrotation Zrotation
		JOINT mixamorig:Spine1
		{
			OFFSET 0.000000 9.893990 -1.470706
			CHANNELS 3 Xrotation Yrotation Zrotation
			JOINT mixamorig:Spine2
			{
				OFFSET 0.000000 9.220787 -1.370637
				CHANNELS 3 Xrotation Yrotation Zrotation
				JOINT mixamorig:Neck
				{
					OFFSET 0.000000 16.740372 -2.049022
					CHANNELS 6 Xposition Yposition Zposition Xrotation Yrotation Zrotation
					JOINT mixamorig:Head
					{
						OFFSET 0.000000 9.617859 1.684976
						CHANNELS 6 Xposition Yposition Zposition Xrotation Yrotation Zrotation
						JOINT mixamorig:HeadTop_End
						{
							OFFSET 0.000000 22.037384 7.501072
							CHANNELS 6 Xposition Yposition Zposition Xrotation Yrotation Zrotation
							End Site
							{
								OFFSET 0.000000 23.106567 -2.828246
							}
						}
					}
				}
				JOINT mixamorig:RightShoulder
				{
					OFFSET -4.570000 11.014877 -2.160840
					CHANNELS 6 Xposition Yposition Zposition Xrotation Yrotation Zrotation
					JOINT mixamorig:RightArm
					{
						OFFSET -10.592867 -0.524796 -2.232105
						CHANNELS 3 Xrotation Yrotation Zrotation
						JOINT mixamorig:RightForeArm
						{
							OFFSET -27.841497 0.000000 -0.000002
							CHANNELS 3 Xrotation Yrotation Zrotation
							JOINT mixamorig:RightHand
							{
								OFFSET -28.328812 0.000000 -0.000001
								CHANNELS 3 Xrotation Yrotation Zrotation
								JOINT mixamorig:RightHandThumb1
								{
									OFFSET -2.464798 -1.573990 2.681911
									CHANNELS 6 Xposition Yposition Zposition Xrotation Yrotation Zrotation
									JOINT mixamorig:RightHandThumb2
									{
										OFFSET -3.244781 -1.873383 1.873376
										CHANNELS 3 Xrotation Yrotation Zrotation
										JOINT mixamorig:RightHandThumb3
										{
											OFFSET -2.646263 -1.527817 1.527818
											CHANNELS 6 Xposition Yposition Zposition Xrotation Yrotation Zrotation
											JOINT mixamorig:RightHandThumb4
											{
												OFFSET -1.994591 -1.151581 1.151575
												CHANNELS 6 Xposition Yposition Zposition Xrotation Yrotation Zrotation
												End Site
												{
													OFFSET -1.860176 -1.142715 1.365483
												}
											}
										}
									}
								}
								JOINT mixamorig:RightHandIndex1
								{
									OFFSET -9.108299 -0.517883 2.259803
									CHANNELS 6 Xposition Yposition Zposition Xrotation Yrotation Zrotation
									JOINT mixamorig:RightHandIndex2
									{
										OFFSET -3.699997 0.000000 0.000000
										CHANNELS 3 Xrotation Yrotation Zrotation
										JOINT mixamorig:RightHandIndex3
										{
											OFFSET -2.850006 0.000000 0.000000
											CHANNELS 3 Xrotation Yrotation Zrotation
											JOINT mixamorig:RightHandIndex4
											{
												OFFSET -2.772194 0.000000 0.000000
												CHANNELS 3 Xrotation Yrotation Zrotation
												End Site
												{
													OFFSET -2.772202 0.000000 -0.000484
												}
											}
										}
									}
								}
								JOINT mixamorig:RightHandMiddle1
								{
									OFFSET -9.532501 0.000000 -0.000000
									CHANNELS 6 Xposition Yposition Zposition Xrotation Yrotation Zrotation
									JOINT mixamorig:RightHandMiddle2
									{
										OFFSET -3.699997 0.000000 0.000000
										CHANNELS 3 Xrotation Yrotation Zrotation
										JOINT mixamorig:RightHandMiddle3
										{
											OFFSET -2.949997 0.000000 0.000000
											CHANNELS 3 Xrotation Yrotation Zrotation
											JOINT mixamorig:RightHandMiddle4
											{
												OFFSET -2.946594 0.000000 0.000000
												CHANNELS 3 Xrotation Yrotation Zrotation
												End Site
												{
													OFFSET -2.946602 0.000000 -0.000982
												}
											}
										}
									}
								}
								JOINT mixamorig:RightHandRing1
								{
									OFFSET -9.103600 -0.043106 -1.865100
									CHANNELS 6 Xposition Yposition Zposition Xrotation Yrotation Zrotation
									JOINT mixamorig:RightHandRing2
									{
										OFFSET -3.379303 0.000000 0.000000
										CHANNELS 3 Xrotation Yrotation Zrotation
										JOINT mixamorig:RightHandRing3
										{
											OFFSET -2.889694 0.000000 0.000000
											CHANNELS 3 Xrotation Yrotation Zrotation
											JOINT mixamorig:RightHandRing4
											{
												OFFSET -2.638802 0.000000 0.000000
												CHANNELS 3 Xrotation Yrotation Zrotation
												End Site
												{
													OFFSET -2.638802 0.000000 0.004218
												}
											}
										}
									}
								}
								JOINT mixamorig:RightHandPinky1
								{
									OFFSET -8.076698 -0.486725 -3.806299
									CHANNELS 6 Xposition Yposition Zposition Xrotation Yrotation Zrotation
									JOINT mixamorig:RightHandPinky2
									{
										OFFSET -3.600006 0.000000 0.000000
										CHANNELS 3 Xrotation Yrotation Zrotation
										JOINT mixamorig:RightHandPinky3
										{
											OFFSET -2.099998 0.000000 0.000000
											CHANNELS 3 Xrotation Yrotation Zrotation
											JOINT mixamorig:RightHandPinky4
											{
												OFFSET -2.115791 0.000000 0.000000
												CHANNELS 3 Xrotation Yrotation Zrotation
												End Site
												{
													OFFSET -2.115799 0.000000 0.000174
												}
											}
										}
									}
								}
							}
						}
					}
				}
				JOINT mixamorig:LeftShoulder
				{
					OFFSET 4.570400 11.014679 -2.160816
					CHANNELS 6 Xposition Yposition Zposition Xrotation Yrotation Zrotation
					JOINT mixamorig:LeftArm
					{
						OFFSET 10.592373 -0.524597 -2.232116
						CHANNELS 3 Xrotation Yrotation Zrotation
						JOINT mixamorig:LeftForeArm
						{
							OFFSET 27.841488 0.000000 0.000001
							CHANNELS 3 Xrotation Yrotation Zrotation
							JOINT mixamorig:LeftHand
							{
								OFFSET 28.328808 0.000000 -0.000000
								CHANNELS 3 Xrotation Yrotation Zrotation
								JOINT mixamorig:LeftHandThumb1
								{
									OFFSET 2.466103 -1.576202 2.681698
									CHANNELS 6 Xposition Yposition Zposition Xrotation Yrotation Zrotation
									JOINT mixamorig:LeftHandThumb2
									{
										OFFSET 3.243317 -1.872528 1.872530
										CHANNELS 3 Xrotation Yrotation Zrotation
										JOINT mixamorig:LeftHandThumb3
										{
											OFFSET 2.647881 -1.528763 1.528754
											CHANNELS 6 Xposition Yposition Zposition Xrotation Yrotation Zrotation
											JOINT mixamorig:LeftHandThumb4
											{
												OFFSET 1.998924 -1.154083 1.154080
												CHANNELS 6 Xposition Yposition Zposition Xrotation Yrotation Zrotation
												End Site
												{
													OFFSET 1.884041 -1.149155 1.337651
												}
											}
										}
									}
								}
								JOINT mixamorig:LeftHandIndex1
								{
									OFFSET 9.109299 -0.518005 2.259900
									CHANNELS 6 Xposition Yposition Zposition Xrotation Yrotation Zrotation
									JOINT mixamorig:LeftHandIndex2
									{
										OFFSET 3.699997 0.000000 0.000000
										CHANNELS 3 Xrotation Yrotation Zrotation
										JOINT mixamorig:LeftHandIndex3
										{
											OFFSET 2.850006 0.000000 0.000000
											CHANNELS 3 Xrotation Yrotation Zrotation
											JOINT mixamorig:LeftHandIndex4
											{
												OFFSET 2.774895 0.000000 0.000000
												CHANNELS 3 Xrotation Yrotation Zrotation
												End Site
												{
													OFFSET 2.774902 0.000000 -0.000072
												}
											}
										}
									}
								}
								JOINT mixamorig:LeftHandMiddle1
								{
									OFFSET 9.533401 0.000000 0.000000
									CHANNELS 6 Xposition Yposition Zposition Xrotation Yrotation Zrotation
									JOINT mixamorig:LeftHandMiddle2
									{
										OFFSET 3.699997 0.000000 0.000000
										CHANNELS 3 Xrotation Yrotation Zrotation
										JOINT mixamorig:LeftHandMiddle3
										{
											OFFSET 2.949997 0.000000 0.000000
											CHANNELS 3 Xrotation Yrotation Zrotation
											JOINT mixamorig:LeftHandMiddle4
											{
												OFFSET 2.952896 0.000000 0.000000
												CHANNELS 3 Xrotation Yrotation Zrotation
												End Site
												{
													OFFSET 2.952904 0.000000 0.000165
												}
											}
										}
									}
								}
								JOINT mixamorig:LeftHandRing1
								{
									OFFSET 9.104500 -0.042999 -1.865101
									CHANNELS 6 Xposition Yposition Zposition Xrotation Yrotation Zrotation
									JOINT mixamorig:LeftHandRing2
									{
										OFFSET 3.149994 0.000000 0.000000
										CHANNELS 3 Xrotation Yrotation Zrotation
										JOINT mixamorig:LeftHandRing3
										{
											OFFSET 2.950005 0.000000 0.000000
											CHANNELS 3 Xrotation Yrotation Zrotation
											JOINT mixamorig:LeftHandRing4
											{
												OFFSET 2.644302 0.000000 0.000000
												CHANNELS 3 Xrotation Yrotation Zrotation
												End Site
												{
													OFFSET 2.644302 0.000000 0.000083
												}
											}
										}
									}
								}
								JOINT mixamorig:LeftHandPinky1
								{
									OFFSET 8.077805 -0.486893 -3.806302
									CHANNELS 6 Xposition Yposition Zposition Xrotation Yrotation Zrotation
									JOINT mixamorig:LeftHandPinky2
									{
										OFFSET 3.600006 0.000000 0.000000
										CHANNELS 3 Xrotation Yrotation Zrotation
										JOINT mixamorig:LeftHandPinky3
										{
											OFFSET 2.099998 0.000000 0.000000
											CHANNELS 3 Xrotation Yrotation Zrotation
											JOINT mixamorig:LeftHandPinky4
											{
												OFFSET 2.125496 0.000000 0.000000
												CHANNELS 3 Xrotation Yrotation Zrotation
												End Site
												{
													OFFSET 2.125504 0.000000 -0.001254
												}
											}
										}
									}
								}
							}
						}
					}
				}
			}
		}
	}
	JOINT mixamorig:RightUpLeg
	{
		OFFSET -8.207800 -6.751701 -1.599544
		CHANNELS 6 Xposition Yposition Zposition Xrotation Yrotation Zrotation
		JOINT mixamorig:RightLeg
		{
			OFFSET 0.000004 -44.370152 0.345934
			CHANNELS 3 Xrotation Yrotation Zrotation
			JOINT mixamorig:RightFoot
			{
				OFFSET 0.000004 -44.423664 -3.043535
				CHANNELS 3 Xrotation Yrotation Zrotation
				JOINT mixamorig:RightToeBase
				{
					OFFSET 0.000001 -8.728691 10.710592
					CHANNELS 3 Xrotation Yrotation Zrotation
					JOINT mixamorig:RightToe_End
					{
						OFFSET 0.000000 -0.000665 9.278101
						CHANNELS 3 Xrotation Yrotation Zrotation
						End Site
						{
							OFFSET 0.000000 -0.000665 9.278103
						}
					}
				}
			}
		}
	}
	JOINT mixamorig:LeftUpLeg
	{
		OFFSET 8.207800 -6.751701 -1.599544
		CHANNELS 6 Xposition Yposition Zposition Xrotation Yrotation Zrotation
		JOINT mixamorig:LeftLeg
		{
			OFFSET 0.000004 -44.370037 0.346940
			CHANNELS 3 Xrotation Yrotation Zrotation
			JOINT mixamorig:LeftFoot
			{
				OFFSET 0.000004 -44.423611 -3.044388
				CHANNELS 3 Xrotation Yrotation Zrotation
				JOINT mixamorig:LeftToeBase
				{
					OFFSET 0.000001 -8.728690 10.710592
					CHANNELS 3 Xrotation Yrotation Zrotation
					JOINT mixamorig:LeftToe_End
					{
						OFFSET 0.000000 -0.000680 9.278101
						CHANNELS 3 Xrotation Yrotation Zrotation
						End Site
						{
							OFFSET 0.000000 -0.000680 9.278101
						}
					}
				}
			}
		}
	}
}
MOTION
Frames: 4
Frame Time: 0.033333
8.238937 84.093063 -9.020042 14.524611 -44.550742 11.204366 -0.000001 10.181557 0.131526 16.351275 -0.518516 -5.343418 22.185831 -0.561741 -7.250020 22.196318 -0.536711 -7.308979 0.000001 16.740360 -2.049010 16.211287 -0.625291 -1.342300 -0.000001 9.617858 1.684987 -3.197948 24.574372 -7.592817 0.000001 22.037369 7.501067 -0.000000 0.000000 -0.000000 -4.569998 11.014881 -2.160833 10.835576 27.911771 3.506368 -53.337487 31.842608 42.550463 0.000244 101.701462 -0.000208 -24.316390 4.246166 14.230243 -2.464800 -1.574012 2.681910 -7.341127 13.749648 7.412344 9.855773 -44.489124 -3.903156 -2.646251 -1.527801 1.527817 -0.115746 -14.513045 -28.973891 -1.994586 -1.151570 1.151575 0.000001 0.000000 0.000001 -9.108313 -0.517882 2.259804 -0.124384 -2.384777 45.108881 4.500577 -4.654540 88.071178 1.723221 -3.618373 50.920122 -0.000000 -0.000000 0.000002 -9.532497 0.000010 0.000000 -0.761625 -2.932894 39.031058 5.133865 -4.632753 95.881649 1.739735 -3.631692 51.181381 0.000000 -0.000000 0.000006 -9.103592 -0.043114 -1.865092 0.154759 -4.068812 39.122671 6.509711 -4.273582 113.462863 2.549579 -4.153919 63.067337 -0.000000 0.000001 0.000004 -8.076700 -0.486723 -3.806287 -4.198885 -8.025507 44.637779 4.252901 -4.639624 85.014805 6.935977 -4.062623 119.322298 -0.000000 0.000001 -0.000000 4.570400 11.014686 -2.160812 -4.546354 -13.847931 3.389475 -32.132533 -13.718841 -36.805038 -0.000035 -84.006218 -0.000042 -24.012182 14.375627 -6.147885 2.466109 -1.576220 2.681695 -6.141120 -11.690711 -6.761679 9.914111 42.595529 3.409807 2.647862 -1.528747 1.528757 -0.422791 8.108095 27.509121 1.998921 -1.154093 1.154082 0.000004 0.000006 0.000001 9.109291 -0.518008 2.259898 0.255272 3.378303 -45.814344 5.654084 5.847949 -88.067455 2.162116 4.544916 -50.866365 -0.000000 -0.000003 0.000000 9.533415 0.000008 -0.000002 -0.461510 3.841673 -39.722673 6.450761 5.820544 -95.892871 2.182856 4.561672 -51.127712 -0.000000 0.000003 -0.000000 9.104514 -0.043006 -1.865108 0.469693 4.966913 -39.799434 8.181092 5.368834 -113.503018 3.200470 5.218254 -63.022968 -0.000001 0.000001 0.000000 8.077803 -0.486885 -3.806307 -3.762469 9.063786 -45.253787 5.342527 5.829168 -85.005338 8.716881 5.103541 -119.369194 -0.000001 -0.000001 -0.000001 -8.207801 -6.751710 -1.599536 -52.953203 -4.893495 -28.618189 68.815980 -2.407805 2.835261 -20.748030 -8.183018 9.704170 -0.162997 -0.000039 0.000001 0.000000 0.000000 -0.000000 8.207798 -6.751704 -1.599546 -57.500603 -2.004325 13.377833 62.253445 1.379260 6.430915 -15.683089 -7.931547 -18.272913 -0.962824 -0.000001 0.000001 -0.000000 -0.000001 0.000000 
7.283893 85.192726 -8.952908 12.134854 -46.559255 10.225377 -0.000001 10.181544 0.131521 15.492194 -0.418741 -5.514696 21.427722 -0.444504 -7.546638 21.436566 -0.423320 -7.599717 -0.000001 16.740360 -2.049013 15.959522 -0.335583 -1.340174 0.000000 9.617853 1.684971 -1.972892 25.941916 -7.590416 0.000001 22.037369 7.501060 -0.000000 0.000000 -0.000002 -4.570001 11.014881 -2.160830 10.860195 27.759156 3.249562 -55.045820 31.809192 44.771497 0.000309 101.817876 -0.000276 -23.890351 5.235365 14.495208 -2.464804 -1.574004 2.681918 -7.341126 13.749645 7.412341 9.855784 -44.489124 -3.903153 -2.646259 -1.527801 1.527818 -0.115751 -14.513047 -28.973891 -1.994598 -1.151587 1.151570 -0.000000 0.000000 0.000003 -9.108306 -0.517886 2.259801 -0.124385 -2.384776 45.108881 4.500577 -4.654540 88.071178 1.723221 -3.618372 50.920129 0.000000 -0.000000 0.000002 -9.532505 0.000006 -0.000005 -0.761627 -2.932893 39.031061 5.133863 -4.632751 95.881649 1.739735 -3.631692 51.181377 -0.000000 -0.000000 0.000004 -9.103607 -0.043095 -1.865102 0.154758 -4.068812 39.122678 6.509712 -4.273582 113.462863 2.549579 -4.153920 63.067337 -0.000000 -0.000001 0.000003 -8.076700 -0.486723 -3.806303 -4.198886 -8.025508 44.637779 4.252900 -4.639623 85.014805 6.935975 -4.062621 119.322298 0.000000 0.000001 -0.000000 4.570398 11.014679 -2.160811 -4.315010 -13.330893 1.273607 -31.554818 -11.844868 -39.164803 -0.000093 -85.612699 -0.000097 -23.006066 15.072692 -5.171642 2.466105 -1.576206 2.681698 -6.141119 -11.690711 -6.761677 9.914113 42.595532 3.409801 2.647885 -1.528755 1.528752 -0.422794 8.108098 27.509118 1.998913 -1.154079 1.154076 0.000002 0.000004 0.000001 9.109283 -0.518012 2.259902 0.255274 3.378304 -45.814341 5.654082 5.847955 -88.067455 2.162115 4.544914 -50.866365 -0.000001 -0.000003 0.000000 9.533415 0.000009 0.000000 -0.461506 3.841676 -39.722679 6.450763 5.820543 -95.892871 2.182862 4.561670 -51.127709 -0.000002 0.000000 -0.000000 9.104510 -0.042995 -1.865102 0.469693 4.966916 -39.799441 8.181092 5.368829 -113.503018 3.200470 5.218250 -63.022975 0.000000 0.000003 0.000002 8.077804 -0.486881 -3.806297 -3.762470 9.063784 -45.253787 5.342526 5.829166 -85.005338 8.716885 5.103541 -119.369194 -0.000005 0.000001 -0.000000 -8.207806 -6.751718 -1.599547 -49.917461 -4.836212 -27.341939 67.191535 -2.362036 2.049332 -20.721677 -8.071409 9.451848 -0.203512 -0.000001 0.000003 0.000000 -0.000000 -0.000000 8.207798 -6.751707 -1.599551 -53.187813 -0.636796 14.167910 60.124311 1.527284 6.688953 -15.693744 -7.478979 -18.891975 -1.019179 -0.000017 0.000001 -0.000000 -0.000002 0.000000 
6.178135 86.236015 -8.914882 9.436651 -48.049483 9.488423 0.000000 10.181558 0.131523 14.660200 -0.364707 -5.714654 20.679911 -0.367438 -7.921078 20.687091 -0.350277 -7.968352 0.000003 16.740360 -2.049016 15.417303 -0.015482 -1.268737 -0.000001 9.617847 1.684973 -1.182704 27.334263 -7.310216 -0.000001 22.037384 7.501059 -0.000001 0.000001 -0.000000 -4.569998 11.014874 -2.160839 10.854532 28.375034 3.365514 -55.867481 31.820328 46.243202 0.000272 102.142235 -0.000215 -23.922570 7.210943 15.478406 -2.464795 -1.574009 2.681911 -7.341123 13.749650 7.412338 9.855784 -44.489124 -3.903156 -2.646251 -1.527797 1.527815 -0.115750 -14.513045 -28.973895 -1.994590 -1.151582 1.151571 0.000001 -0.000005 -0.000000 -9.108314 -0.517886 2.259808 -0.124385 -2.384776 45.108885 4.500578 -4.654541 88.071178 1.723220 -3.618371 50.920126 -0.000001 -0.000002 0.000001 -9.532505 0.000002 0.000002 -0.761625 -2.932893 39.031058 5.133864 -4.632751 95.881649 1.739735 -3.631693 51.181381 0.000000 -0.000002 0.000003 -9.103600 -0.043111 -1.865106 0.154759 -4.068811 39.122671 6.509711 -4.273582 113.462863 2.549579 -4.153919 63.067337 0.000002 0.000001 0.000003 -8.076693 -0.486723 -3.806298 -4.198885 -8.025507 44.637776 4.252900 -4.639623 85.014805 6.935976 -4.062622 119.322298 -0.000002 -0.000000 0.000000 4.570402 11.014686 -2.160811 -3.998692 -12.330914 0.657304 -30.980587 -9.278312 -42.038851 0.000046 -87.684930 0.000079 -22.800184 14.515930 -4.477683 2.466100 -1.576225 2.681712 -6.141119 -11.690711 -6.761675 9.914109 42.595529 3.409802 2.647861 -1.528755 1.528755 -0.422793 8.108099 27.509123 1.998917 -1.154085 1.154077 -0.000001 0.000002 -0.000000 9.109287 -0.518012 2.259912 0.255271 3.378302 -45.814341 5.654085 5.847950 -88.067455 2.162118 4.544917 -50.866362 -0.000001 -0.000004 0.000001 9.533407 0.000009 0.000006 -0.461507 3.841671 -39.722673 6.450763 5.820547 -95.892871 2.182861 4.561670 -51.127709 0.000001 0.000004 -0.000001 9.104514 -0.043007 -1.865089 0.469693 4.966913 -39.799434 8.181094 5.368830 -113.503018 3.200467 5.218250 -63.022968 0.000002 -0.000004 -0.000000 8.077806 -0.486885 -3.806289 -3.762469 9.063787 -45.253787 5.342529 5.829170 -85.005331 8.716886 5.103544 -119.369194 0.000004 -0.000000 0.000005 -8.207804 -6.751697 -1.599535 -46.934765 -4.738943 -26.883585 65.823858 -2.336623 1.110631 -20.950712 -7.891170 9.315640 -0.221188 -0.000028 0.000002 -0.000000 0.000000 0.000000 8.207799 -6.751694 -1.599547 -48.813108 1.159520 14.539140 57.754119 1.505624 6.526507 -15.591179 -7.414154 -19.211770 -1.066263 0.000009 0.000001 0.000000 -0.000001 0.000000 
4.996242 87.297462 -8.790792 6.201202 -48.814416 8.199115 -0.000000 10.181542 0.131526 13.898555 -0.275898 -5.628931 20.158117 -0.255202 -7.983935 20.164525 -0.239861 -8.026414 -0.000001 16.740355 -2.049011 14.708112 0.234009 -1.228378 0.000003 9.617857 1.684964 -0.582705 28.578147 -7.590237 0.000003 22.037354 7.501072 -0.000003 -0.000001 0.000000 -4.569999 11.014859 -2.160832 10.888461 28.806719 3.343855 -56.270169 32.827289 47.226865 0.000311 102.046066 -0.000277 -23.768737 9.988907 14.447006 -2.464794 -1.573987 2.681920 -7.341125 13.749648 7.412341 9.855783 -44.489127 -3.903164 -2.646259 -1.527804 1.527824 -0.115746 -14.513047 -28.973891 -1.994590 -1.151582 1.151578 0.000001 -0.000001 -0.000000 -9.108309 -0.517886 2.259802 -0.124385 -2.384777 45.108881 4.500579 -4.654540 88.071178 1.723222 -3.618371 50.920126 -0.000001 -0.000002 -0.000002 -9.532505 0.000010 0.000002 -0.761624 -2.932893 39.031058 5.133864 -4.632751 95.881649 1.739736 -3.631696 51.181374 0.000001 -0.000001 -0.000001 -9.103603 -0.043107 -1.865094 0.154758 -4.068812 39.122671 6.509712 -4.273580 113.462863 2.549579 -4.153920 63.067337 -0.000001 0.000001 0.000002 -8.076696 -0.486730 -3.806291 -4.198885 -8.025506 44.637776 4.252900 -4.639623 85.014805 6.935975 -4.062621 119.322298 -0.000000 -0.000000 0.000000 4.570402 11.014659 -2.160811 -3.710032 -11.683771 0.757714 -30.015499 -6.821049 -44.123217 -0.000131 -89.505333 -0.000078 -22.589423 13.433493 -3.581835 2.466098 -1.576225 2.681703 -6.141123 -11.690716 -6.761677 9.914109 42.595525 3.409801 2.647862 -1.528759 1.528750 -0.422791 8.108096 27.509123 1.998909 -1.154093 1.154077 -0.000002 -0.000002 -0.000000 9.109295 -0.518015 2.259897 0.255276 3.378303 -45.814341 5.654084 5.847949 -88.067455 2.162121 4.544915 -50.866369 -0.000000 0.000005 0.000001 9.533408 0.000009 0.000005 -0.461507 3.841669 -39.722673 6.450759 5.820546 -95.892871 2.182863 4.561671 -51.127712 0.000000 0.000002 -0.000001 9.104510 -0.043006 -1.865100 0.469696 4.966915 -39.799437 8.181096 5.368832 -113.503018 3.200466 5.218250 -63.022968 -0.000001 -0.000001 0.000000 8.077815 -0.486885 -3.806306 -3.762469 9.063781 -45.253787 5.342531 5.829171 -85.005331 8.716884 5.103543 -119.369194 -0.000006 -0.000000 -0.000005 -8.207797 -6.751713 -1.599548 -43.575080 -5.264007 -27.090989 64.377682 -2.367822 0.350282 -21.316066 -7.512826 9.200644 -0.236362 -0.000011 -0.000008 0.000000 -0.000000 -0.000000 8.207801 -6.751707 -1.599549 -44.375346 3.104897 14.652166 55.238605 0.807134 6.402158 -15.342374 -7.458546 -19.239721 -1.111336 -0.000007 -0.000000 0.000000 0.000001 0.000000 
